<?xml version="1.0" encoding="UTF-8"?><svg id="a" xmlns="http://www.w3.org/2000/svg" viewBox="0 0 364.33 125.33"><defs><style>.b{fill:#141a46;}.c{fill:#ec8b5e;fill-rule:evenodd;}</style></defs><path class="c" d="M62.66,0c9.35,0,18.23,2.05,26.2,5.73-.03,19.63-.15,42.92,.06,47.98,.23,3.42,2.1,6.4,4.28,8.94-2.36,2.71-4.26,5.99-4.33,9.67-.07,3.87-.06,26.12-.04,47.3-7.96,3.66-16.82,5.71-26.16,5.71s-18.2-2.05-26.16-5.71c.01-21.18,.02-43.43-.04-47.3-.07-3.68-1.97-6.96-4.33-9.67,2.17-2.54,4.05-5.52,4.28-8.94,.21-5.06,.09-28.35,.06-47.98C44.44,2.05,53.31,0,62.66,0h0Zm37.78,12.67c15.11,11.44,24.88,29.57,24.88,49.99s-9.76,38.53-24.86,49.98c0-17.88-.02-34.51-.03-37.63,.03-1.4-.08-3.08,1.14-4.06,2.43-2.19,5.9-2.26,8.98-2.56,0-3.82,0-7.65,0-11.47-3.45-.39-8.33-.37-9.92-4.12-.24-3.18-.22-22.81-.18-40.13h0ZM24.86,112.64C9.76,101.2,0,83.07,0,62.66S9.77,24.11,24.88,12.67c.04,17.32,.06,36.95-.18,40.13-1.58,3.75-6.47,3.73-9.92,4.12,0,3.82,0,7.64,0,11.47,3.08,.3,6.55,.36,8.98,2.56,1.21,.99,1.1,2.66,1.14,4.06,0,3.12-.02,19.75-.03,37.63h0Zm20.04-44.15h35.52v-11.66H44.9v11.66Z"/><g><path class="b" d="M167.92,103.78l-5.52-23.15-5.63,23.15h-6.97l-10.07-35.58h7.93l5.84,23.04,4.93-23.04h7.82l5.41,23.04,5.79-23.04h7.61l-9.97,35.58h-7.18Z"/><path class="b" d="M188.93,92.41c.11,2,.69,3.59,1.74,4.77,1.05,1.18,2.44,1.77,4.15,1.77,1.14,0,2.15-.26,3.03-.78,.88-.52,1.44-1.24,1.69-2.17h7.18c-.82,2.71-2.25,4.81-4.29,6.27-2.04,1.47-4.47,2.2-7.29,2.2-8.79,0-13.18-4.79-13.18-14.36,0-2.04,.29-3.88,.86-5.52s1.4-3.05,2.49-4.23c1.09-1.18,2.42-2.08,3.99-2.71,1.57-.62,3.38-.94,5.41-.94,4.07,0,7.15,1.3,9.25,3.91,2.09,2.61,3.13,6.54,3.13,11.79h-18.17Zm10.99-4.39c-.04-.96-.21-1.81-.51-2.55-.3-.73-.71-1.34-1.21-1.82-.5-.48-1.07-.84-1.71-1.07-.64-.23-1.3-.35-1.98-.35-1.39,0-2.6,.51-3.62,1.53s-1.6,2.44-1.74,4.26h10.77Z"/><path class="b" d="M209.51,103.78v-36.01h6.86v13.08c1.96-2.75,4.57-4.13,7.82-4.13,1.71,0,3.24,.33,4.58,.99,1.34,.66,2.47,1.6,3.4,2.81,.93,1.21,1.63,2.65,2.12,4.31,.48,1.66,.72,3.49,.72,5.49,0,2.21-.29,4.2-.86,5.95-.57,1.75-1.36,3.23-2.36,4.45-1,1.21-2.21,2.14-3.62,2.79-1.41,.64-2.94,.96-4.58,.96-3.29,0-5.73-1.3-7.34-3.91l-.05,3.22h-6.7Zm12.49-4.98c1.75,0,3.18-.74,4.29-2.22,1.11-1.48,1.66-3.4,1.66-5.76,0-5.43-2-8.15-6-8.15s-5.84,2.86-5.84,8.57c0,2.25,.56,4.07,1.69,5.47,1.12,1.39,2.53,2.09,4.21,2.09Z"/><path class="b" d="M275.05,103.78l-2.25-7.34h-13.13l-2.52,7.34h-7.88l12.7-35.58h8.63l12.54,35.58h-8.09Zm-8.84-27.6h-.05l-4.55,14.15h9.06l-4.45-14.15Z"/><path class="b" d="M284.96,116.26v-38.85h6.7l.05,3.22c1.61-2.61,4.05-3.91,7.34-3.91,1.64,0,3.17,.32,4.58,.96,1.41,.64,2.62,1.57,3.62,2.79,1,1.21,1.79,2.7,2.36,4.45,.57,1.75,.86,3.73,.86,5.95,0,2-.24,3.83-.72,5.49s-1.19,3.1-2.12,4.31c-.93,1.21-2.06,2.15-3.4,2.81-1.34,.66-2.87,.99-4.58,.99-3.25,0-5.86-1.38-7.82-4.13v15.92h-6.86Zm12.43-17.74c4,0,6-2.71,6-8.15,0-2.36-.55-4.28-1.66-5.76-1.11-1.48-2.54-2.22-4.29-2.22s-3.08,.7-4.21,2.09c-1.12,1.39-1.69,3.21-1.69,5.47,0,5.72,1.95,8.57,5.84,8.57Z"/><path class="b" d="M312.99,116.26v-38.85h6.7l.05,3.22c1.61-2.61,4.05-3.91,7.34-3.91,1.64,0,3.17,.32,4.58,.96,1.41,.64,2.62,1.57,3.62,2.79,1,1.21,1.79,2.7,2.36,4.45,.57,1.75,.86,3.73,.86,5.95,0,2-.24,3.83-.72,5.49s-1.19,3.1-2.12,4.31c-.93,1.21-2.06,2.15-3.4,2.81-1.34,.66-2.87,.99-4.58,.99-3.25,0-5.86-1.38-7.82-4.13v15.92h-6.86Zm12.43-17.74c4,0,6-2.71,6-8.15,0-2.36-.55-4.28-1.66-5.76-1.11-1.48-2.54-2.22-4.29-2.22s-3.08,.7-4.21,2.09c-1.12,1.39-1.69,3.21-1.69,5.47,0,5.72,1.95,8.57,5.84,8.57Z"/><path class="b" d="M356.88,85.39c-.18-1.29-.64-2.19-1.39-2.71s-1.93-.78-3.54-.78c-1.32,0-2.34,.17-3.05,.51-.71,.34-1.07,.9-1.07,1.69s.36,1.38,1.07,1.79c.71,.41,1.79,.81,3.22,1.21,1.5,.43,2.93,.81,4.29,1.15,1.36,.34,2.55,.71,3.59,1.1,1.39,.57,2.46,1.35,3.21,2.33,.75,.98,1.13,2.33,1.13,4.05,0,2.75-.97,4.89-2.92,6.43-1.95,1.54-4.81,2.3-8.6,2.3-4.07,0-7.19-.86-9.35-2.57-2.16-1.71-3.28-3.91-3.35-6.59h7.18c0,1.25,.48,2.22,1.45,2.89,.96,.68,2.3,1.02,4.02,1.02,1.25,0,2.34-.21,3.27-.62,.93-.41,1.39-1.12,1.39-2.12,0-.93-.42-1.59-1.26-1.98-.84-.39-1.83-.73-2.97-1.02-2.21-.54-4-1.02-5.36-1.45-1.36-.43-2.5-.95-3.43-1.55-1.25-.79-2.12-1.68-2.6-2.68-.48-1-.72-2.09-.72-3.27,0-1.11,.2-2.14,.59-3.11,.39-.96,1.04-1.79,1.93-2.49,.89-.7,2.04-1.24,3.46-1.63,1.41-.39,3.12-.59,5.12-.59,3.82,0,6.64,.73,8.44,2.2,1.8,1.47,2.79,3.63,2.97,6.48h-6.7Z"/><path class="b" d="M162.14,56.81v-15.97h-13.88v15.97h-7.45V21.23h7.45v13.4h13.88v-13.4h7.5V56.81h-7.5Z"/><path class="b" d="M189.57,56.81v-3.7c-1.79,2.93-4.52,4.39-8.2,4.39-1.32,0-2.53-.23-3.62-.7s-2.03-1.13-2.81-1.98c-.79-.86-1.4-1.88-1.85-3.05-.45-1.18-.67-2.5-.67-3.97V30.45h6.97v16.29c0,3.29,1.48,4.93,4.45,4.93,1.79,0,3.13-.56,4.05-1.69,.91-1.13,1.37-2.56,1.37-4.31v-15.22h6.91v26.37h-6.59Z"/><path class="b" d="M216.1,56.81v-15.97c0-2.04-.34-3.41-1.02-4.13-.68-.71-1.84-1.07-3.48-1.07-3.61,0-5.41,2.02-5.41,6.06v15.11h-6.97V30.45h6.64v3.86c.82-1.5,1.91-2.63,3.27-3.4,1.36-.77,3.11-1.15,5.25-1.15,1.25,0,2.41,.19,3.48,.56,1.07,.38,1.99,.94,2.76,1.69,.77,.75,1.37,1.67,1.82,2.76,.45,1.09,.67,2.35,.67,3.78v18.27h-7.02Z"/><path class="b" d="M241.12,39.45h6.48v7.5c0,1.39-.21,2.72-.62,3.99-.41,1.27-1.05,2.39-1.93,3.38-.88,.98-1.98,1.76-3.32,2.33-1.34,.57-2.94,.86-4.8,.86s-3.57-.29-4.93-.86c-1.36-.57-2.47-1.34-3.35-2.3-.88-.96-1.51-2.09-1.9-3.38s-.59-2.64-.59-4.07V23.32h6.86v7.13h14.58v4.93h-14.58v10.82c0,1.68,.31,2.97,.94,3.89s1.65,1.37,3.08,1.37,2.42-.45,3.08-1.34c.66-.89,.99-2.16,.99-3.8v-6.86Z"/><path class="b" d="M256.83,45.45c.11,2,.69,3.59,1.74,4.77,1.05,1.18,2.44,1.77,4.15,1.77,1.14,0,2.15-.26,3.03-.78,.88-.52,1.44-1.24,1.69-2.17h7.18c-.82,2.72-2.25,4.81-4.29,6.27-2.04,1.47-4.47,2.2-7.29,2.2-8.79,0-13.18-4.79-13.18-14.36,0-2.04,.29-3.88,.86-5.52,.57-1.64,1.4-3.05,2.49-4.23,1.09-1.18,2.42-2.08,3.99-2.71,1.57-.62,3.38-.94,5.41-.94,4.07,0,7.15,1.3,9.25,3.91,2.09,2.61,3.13,6.54,3.13,11.79h-18.17Zm10.99-4.39c-.04-.96-.21-1.81-.51-2.55-.3-.73-.71-1.34-1.21-1.82-.5-.48-1.07-.84-1.71-1.07-.64-.23-1.3-.35-1.98-.35-1.39,0-2.6,.51-3.62,1.53s-1.6,2.44-1.74,4.26h10.77Z"/><path class="b" d="M277.4,56.81V30.45h6.54v3.16c.57-.89,1.17-1.59,1.79-2.09,.62-.5,1.27-.88,1.93-1.15s1.33-.44,2.01-.51c.68-.07,1.38-.11,2.09-.11h.91v7.13c-.64-.11-1.29-.16-1.93-.16-4.25,0-6.38,2.13-6.38,6.38v13.72h-6.97Z"/></g></svg>